<svg width="430" height="441" viewBox="0 0 430 441" fill="none" xmlns="http://www.w3.org/2000/svg">
<rect width="430" height="441" fill="#00AB37"/>
<path d="M82.1116 341.282V370.488H78.6959L62.8141 347.557H62.5293V370.488H59V341.282H62.4154L78.3546 364.27H78.6391V341.282H82.1116ZM102.494 361.533V348.585H105.853V370.488H102.494V366.78H102.266C101.754 367.891 100.957 368.838 99.8755 369.618C98.7942 370.388 97.4279 370.772 95.7768 370.772C94.411 370.772 93.1963 370.475 92.1337 369.876C91.0714 369.266 90.2365 368.353 89.629 367.138C89.0219 365.91 88.7183 364.364 88.7183 362.503V348.585H92.0769V362.272C92.0769 363.872 92.5228 365.143 93.4148 366.097C94.3158 367.048 95.4639 367.523 96.8585 367.523C97.6934 367.523 98.5427 367.309 99.406 366.88C100.279 366.452 101.009 365.796 101.597 364.913C102.195 364.029 102.494 362.901 102.494 361.533ZM95.7768 345.616L99.2494 339H103.177L98.7371 345.616H95.7768ZM112.004 370.488V348.585H115.249V352.005H115.533C115.989 350.837 116.724 349.93 117.739 349.281C118.755 348.625 119.973 348.297 121.397 348.297C122.839 348.297 124.039 348.625 124.997 349.281C125.965 349.93 126.719 350.837 127.26 352.005H127.488C128.047 350.874 128.887 349.977 130.007 349.311C131.126 348.635 132.469 348.297 134.034 348.297C135.988 348.297 137.587 348.913 138.83 350.137C140.073 351.356 140.694 353.25 140.694 355.827V370.488H137.336V355.827C137.336 354.21 136.895 353.056 136.012 352.363C135.13 351.667 134.091 351.322 132.895 351.322C131.358 351.322 130.168 351.787 129.323 352.718C128.479 353.641 128.057 354.809 128.057 356.228V370.488H124.642V355.485C124.642 354.24 124.238 353.236 123.432 352.477C122.625 351.707 121.587 351.322 120.315 351.322C119.442 351.322 118.626 351.553 117.867 352.022C117.118 352.487 116.511 353.133 116.046 353.959C115.59 354.776 115.363 355.723 115.363 356.797V370.488H112.004ZM156 370.943C153.894 370.943 152.077 370.478 150.549 369.548C149.031 368.607 147.86 367.292 147.034 365.612C146.218 363.919 145.81 361.951 145.81 359.705C145.81 357.463 146.218 355.485 147.034 353.775C147.86 352.052 149.007 350.713 150.478 349.753C151.958 348.782 153.685 348.297 155.658 348.297C156.797 348.297 157.921 348.488 159.031 348.869C160.141 349.247 161.152 349.866 162.062 350.723C162.973 351.57 163.699 352.691 164.24 354.086C164.78 355.485 165.051 357.205 165.051 359.25V360.676H148.201V357.768H161.635C161.635 356.533 161.389 355.428 160.895 354.458C160.412 353.487 159.719 352.724 158.818 352.162C157.926 351.603 156.873 351.322 155.658 351.322C154.32 351.322 153.163 351.653 152.186 352.319C151.218 352.975 150.473 353.832 149.952 354.886C149.43 355.94 149.169 357.072 149.169 358.28V360.221C149.169 361.874 149.453 363.276 150.023 364.427C150.601 365.568 151.403 366.439 152.428 367.038C153.452 367.627 154.643 367.921 156 367.921C156.882 367.921 157.679 367.797 158.391 367.55C159.112 367.292 159.733 366.914 160.255 366.409C160.777 365.896 161.18 365.257 161.464 364.498L164.709 365.411C164.368 366.512 163.794 367.483 162.987 368.319C162.181 369.146 161.185 369.795 159.999 370.26C158.813 370.716 157.48 370.943 156 370.943ZM170.16 370.488V348.585H173.405V351.891H173.632C174.031 350.807 174.752 349.93 175.795 349.254C176.839 348.578 178.015 348.24 179.325 348.24C179.571 348.24 179.88 348.247 180.25 348.257C180.62 348.263 180.9 348.28 181.09 348.297V351.72C180.976 351.694 180.715 351.65 180.307 351.593C179.908 351.526 179.486 351.493 179.04 351.493C177.977 351.493 177.029 351.717 176.194 352.162C175.369 352.601 174.714 353.21 174.23 353.989C173.755 354.759 173.518 355.636 173.518 356.626V370.488H170.16ZM193.285 370.943C191.312 370.943 189.581 370.475 188.091 369.531C186.611 368.59 185.454 367.275 184.619 365.582C183.793 363.889 183.381 361.911 183.381 359.648C183.381 357.369 183.793 355.375 184.619 353.675C185.454 351.971 186.611 350.649 188.091 349.709C189.581 348.769 191.312 348.297 193.285 348.297C195.259 348.297 196.986 348.769 198.466 349.709C199.955 350.649 201.113 351.971 201.938 353.675C202.773 355.375 203.191 357.369 203.191 359.648C203.191 361.911 202.773 363.889 201.938 365.582C201.113 367.275 199.955 368.59 198.466 369.531C196.986 370.475 195.259 370.943 193.285 370.943ZM193.285 367.921C194.785 367.921 196.018 367.536 196.986 366.767C197.953 365.997 198.67 364.983 199.135 363.728C199.6 362.473 199.832 361.114 199.832 359.648C199.832 358.186 199.6 356.821 199.135 355.556C198.67 354.294 197.953 353.27 196.986 352.49C196.018 351.71 194.785 351.322 193.285 351.322C191.787 351.322 190.553 351.71 189.585 352.49C188.618 353.27 187.901 354.294 187.436 355.556C186.972 356.821 186.739 358.186 186.739 359.648C186.739 361.114 186.972 362.473 187.436 363.728C187.901 364.983 188.618 365.997 189.585 366.767C190.553 367.536 191.787 367.921 193.285 367.921ZM227.842 370.943C226.021 370.943 224.413 370.485 223.018 369.561C221.623 368.631 220.532 367.319 219.745 365.625C218.957 363.922 218.564 361.914 218.564 359.592C218.564 357.292 218.957 355.294 219.745 353.604C220.532 351.911 221.628 350.603 223.032 349.682C224.436 348.759 226.059 348.297 227.899 348.297C229.323 348.297 230.447 348.534 231.272 349.01C232.107 349.478 232.743 350.01 233.179 350.609C233.625 351.198 233.971 351.684 234.218 352.062H234.503V341.282H237.861V370.488H234.616V367.121H234.218C233.971 367.523 233.62 368.025 233.165 368.634C232.71 369.233 232.06 369.772 231.215 370.247C230.371 370.712 229.247 370.943 227.842 370.943ZM228.298 367.921C229.645 367.921 230.784 367.57 231.713 366.867C232.643 366.154 233.35 365.17 233.834 363.915C234.318 362.65 234.56 361.191 234.56 359.535C234.56 357.901 234.322 356.469 233.848 355.244C233.374 354.006 232.671 353.046 231.742 352.363C230.812 351.667 229.664 351.322 228.298 351.322C226.875 351.322 225.689 351.687 224.74 352.42C223.801 353.143 223.094 354.127 222.62 355.371C222.155 356.606 221.922 357.995 221.922 359.535C221.922 361.094 222.159 362.51 222.634 363.785C223.118 365.05 223.829 366.057 224.768 366.81C225.717 367.55 226.894 367.921 228.298 367.921ZM250.911 371C249.526 371 248.269 370.739 247.14 370.217C246.011 369.685 245.114 368.918 244.45 367.921C243.786 366.914 243.454 365.696 243.454 364.27C243.454 363.015 243.701 361.998 244.194 361.218C244.687 360.428 245.347 359.812 246.172 359.364C246.998 358.919 247.908 358.584 248.905 358.367C249.91 358.139 250.921 357.958 251.936 357.825C253.264 357.654 254.34 357.523 255.168 357.44C256.003 357.343 256.607 357.189 256.988 356.968C257.375 356.75 257.572 356.369 257.572 355.827V355.713C257.572 354.307 257.188 353.213 256.42 352.433C255.659 351.653 254.507 351.265 252.96 351.265C251.357 351.265 250.1 351.617 249.189 352.319C248.278 353.022 247.638 353.775 247.268 354.572L244.08 353.43C244.65 352.102 245.408 351.064 246.357 350.321C247.316 349.572 248.359 349.05 249.488 348.755C250.626 348.451 251.746 348.297 252.847 348.297C253.548 348.297 254.356 348.384 255.265 348.554C256.186 348.715 257.075 349.053 257.926 349.568C258.791 350.08 259.506 350.857 260.077 351.891C260.645 352.928 260.929 354.317 260.929 356.058V370.488H257.572V367.523H257.402C257.172 367.998 256.794 368.507 256.263 369.049C255.732 369.591 255.024 370.05 254.143 370.431C253.258 370.813 252.183 371 250.911 371ZM251.424 367.978C252.753 367.978 253.872 367.717 254.781 367.195C255.702 366.67 256.394 365.997 256.861 365.17C257.335 364.34 257.572 363.47 257.572 362.56V359.478C257.429 359.648 257.115 359.806 256.631 359.95C256.156 360.083 255.609 360.201 254.981 360.304C254.363 360.401 253.762 360.485 253.174 360.562C252.596 360.629 252.126 360.686 251.765 360.733C250.892 360.846 250.076 361.034 249.317 361.288C248.568 361.536 247.96 361.911 247.496 362.416C247.04 362.911 246.813 363.584 246.813 364.441C246.813 365.612 247.244 366.495 248.108 367.095C248.98 367.684 250.086 367.978 251.424 367.978ZM293.814 353.487L290.798 354.344C290.608 353.842 290.327 353.35 289.956 352.875C289.599 352.39 289.105 351.991 288.477 351.677C287.852 351.366 287.051 351.208 286.072 351.208C284.737 351.208 283.621 351.516 282.73 352.135C281.848 352.741 281.404 353.517 281.404 354.458C281.404 355.295 281.708 355.957 282.315 356.442C282.923 356.924 283.872 357.329 285.161 357.654L288.407 358.45C290.36 358.926 291.817 359.655 292.775 360.632C293.733 361.603 294.214 362.854 294.214 364.384C294.214 365.639 293.854 366.76 293.132 367.75C292.421 368.738 291.422 369.517 290.143 370.09C288.861 370.659 287.372 370.943 285.675 370.943C283.444 370.943 281.601 370.458 280.138 369.491C278.679 368.52 277.754 367.105 277.363 365.241L280.552 364.441C280.856 365.619 281.43 366.506 282.272 367.095C283.127 367.684 284.242 367.978 285.618 367.978C287.185 367.978 288.427 367.647 289.345 366.981C290.277 366.305 290.741 365.498 290.741 364.554C290.741 363.795 290.474 363.159 289.943 362.644C289.412 362.122 288.597 361.733 287.495 361.476L283.852 360.619C281.851 360.144 280.382 359.407 279.44 358.41C278.512 357.4 278.047 356.141 278.047 354.629C278.047 353.394 278.391 352.299 279.086 351.349C279.787 350.398 280.742 349.652 281.945 349.11C283.16 348.568 284.536 348.297 286.072 348.297C288.237 348.297 289.933 348.772 291.169 349.722C292.411 350.676 293.293 351.931 293.814 353.487ZM308.15 370.943C306.177 370.943 304.444 370.475 302.954 369.531C301.475 368.59 300.316 367.275 299.481 365.582C298.656 363.889 298.245 361.911 298.245 359.648C298.245 357.369 298.656 355.375 299.481 353.675C300.316 351.971 301.475 350.649 302.954 349.709C304.444 348.769 306.177 348.297 308.15 348.297C310.121 348.297 311.851 348.769 313.33 349.709C314.82 350.649 315.975 351.971 316.8 353.675C317.635 355.375 318.052 357.369 318.052 359.648C318.052 361.911 317.635 363.889 316.8 365.582C315.975 367.275 314.82 368.59 313.33 369.531C311.851 370.475 310.121 370.943 308.15 370.943ZM308.15 367.921C309.647 367.921 310.882 367.536 311.851 366.767C312.816 365.997 313.534 364.983 313.998 363.728C314.462 362.473 314.696 361.114 314.696 359.648C314.696 358.186 314.462 356.821 313.998 355.556C313.534 354.294 312.816 353.27 311.851 352.49C310.882 351.71 309.647 351.322 308.15 351.322C306.651 351.322 305.415 351.71 304.45 352.49C303.482 353.27 302.764 354.294 302.299 355.556C301.835 356.821 301.601 358.186 301.601 359.648C301.601 361.114 301.835 362.473 302.299 363.728C302.764 364.983 303.482 365.997 304.45 366.767C305.415 367.536 306.651 367.921 308.15 367.921ZM323.182 370.488V348.585H326.425V351.891H326.652C327.053 350.807 327.774 349.93 328.816 349.254C329.861 348.578 331.037 348.24 332.346 348.24C332.593 348.24 332.9 348.247 333.271 348.257C333.642 348.263 333.922 348.28 334.109 348.297V351.72C333.995 351.694 333.735 351.65 333.328 351.593C332.93 351.526 332.506 351.493 332.062 351.493C331 351.493 330.048 351.717 329.213 352.162C328.388 352.601 327.734 353.21 327.25 353.989C326.775 354.759 326.538 355.636 326.538 356.626V370.488H323.182ZM348.967 348.585V351.436H337.639V348.585H348.967ZM340.942 343.334H344.301V364.213C344.301 365.164 344.438 365.876 344.712 366.352C344.996 366.817 345.357 367.131 345.794 367.292C346.238 367.446 346.709 367.523 347.204 367.523C347.574 367.523 347.878 367.503 348.115 367.466C348.352 367.416 348.539 367.379 348.683 367.349L349.368 370.374C349.137 370.458 348.82 370.545 348.412 370.632C348.005 370.726 347.487 370.772 346.863 370.772C345.911 370.772 344.983 370.568 344.071 370.16C343.169 369.752 342.421 369.129 341.823 368.293C341.236 367.456 340.942 366.398 340.942 365.127V343.334ZM362.95 370.943C360.842 370.943 359.026 370.478 357.499 369.548C355.98 368.607 354.811 367.292 353.983 365.612C353.168 363.919 352.761 361.951 352.761 359.705C352.761 357.463 353.168 355.485 353.983 353.775C354.811 352.052 355.957 350.713 357.429 349.753C358.909 348.782 360.635 348.297 362.609 348.297C363.748 348.297 364.87 348.488 365.982 348.869C367.091 349.247 368.103 349.866 369.011 350.723C369.923 351.57 370.647 352.691 371.188 354.086C371.729 355.485 372 357.205 372 359.25V360.676H355.152V357.768H368.587C368.587 356.533 368.34 355.428 367.846 354.458C367.361 353.487 366.67 352.724 365.768 352.162C364.877 351.603 363.821 351.322 362.609 351.322C361.27 351.322 360.114 351.653 359.136 352.319C358.167 352.975 357.423 353.832 356.902 354.886C356.381 355.94 356.12 357.072 356.12 358.28V360.221C356.12 361.874 356.404 363.276 356.972 364.427C357.553 365.568 358.354 366.439 359.376 367.038C360.402 367.627 361.594 367.921 362.95 367.921C363.831 367.921 364.63 367.797 365.341 367.55C366.062 367.292 366.683 366.914 367.204 366.409C367.725 365.896 368.129 365.257 368.413 364.498L371.659 365.411C371.319 366.512 370.744 367.483 369.936 368.319C369.131 369.146 368.136 369.795 366.947 370.26C365.762 370.716 364.429 370.943 362.95 370.943Z" fill="white"/>
<path fill-rule="evenodd" clip-rule="evenodd" d="M258.229 190.919C236.31 186.793 219.568 182.865 215.889 181.976L215.864 181.704L215.838 181.63C219.695 180.839 238.62 177.331 259.142 179.159C296.181 182.47 291.894 133.849 262.39 142.298C273.121 114.899 231.618 103.905 224.489 139.803C220.227 161.297 216.143 177.652 215.28 181.086C215.204 181.062 215.128 181.062 215.052 181.062L214.951 181.086C214.164 177.356 210.537 158.925 212.414 138.913C215.813 102.843 165.887 107.018 174.564 135.751C146.404 125.3 135.141 165.694 172.001 172.637C194.047 176.812 210.841 180.765 214.392 181.605C214.367 181.679 214.342 181.778 214.367 181.852V181.951C210.46 182.742 191.561 186.25 171.063 184.422C134.05 181.111 138.312 229.732 167.815 221.283C157.084 248.682 198.588 259.651 205.716 223.753C209.496 204.853 213.099 189.906 214.494 184.249C215.077 195.391 213.911 206.558 211.551 217.429C209.04 229.114 205.26 240.529 201.302 251.893C197.167 263.184 193.362 275.018 191.789 287.223C190.089 299.428 190.368 312.002 192.829 324.207V324.231L192.854 324.355C193.311 326.258 195.264 327.444 197.218 327C199.197 326.531 200.414 324.628 199.958 322.725C197.218 311.361 196.457 299.576 197.624 287.89C198.182 282.034 199.197 276.204 200.592 270.447C201.962 264.666 203.763 259.009 205.539 253.203C209.065 241.64 212.414 229.955 214.469 217.972C216.143 208.386 216.904 198.627 216.447 188.918C217.665 196.824 219.137 210.338 217.792 224.667C214.392 260.713 264.344 256.563 255.668 227.83C283.801 238.28 295.091 197.862 258.229 190.919Z" fill="white"/>
</svg>
