<svg width="1024" height="1024" viewBox="0 0 1024 1024" fill="none" xmlns="http://www.w3.org/2000/svg">
<path d="M337 424.5C365.995 424.5 389.5 400.995 389.5 372C389.5 343.005 365.995 319.5 337 319.5C308.005 319.5 284.5 343.005 284.5 372C284.5 400.995 308.005 424.5 337 424.5Z" stroke="black" stroke-width="20" stroke-miterlimit="10" stroke-linecap="round" stroke-linejoin="round"/>
<path d="M337 424.5V704.5" stroke="black" stroke-width="20" stroke-miterlimit="10" stroke-linecap="round" stroke-linejoin="round"/>
<path d="M512 634.5C540.995 634.5 564.5 610.995 564.5 582C564.5 553.005 540.995 529.5 512 529.5C483.005 529.5 459.5 553.005 459.5 582C459.5 610.995 483.005 634.5 512 634.5Z" stroke="black" stroke-width="20" stroke-miterlimit="10" stroke-linecap="round" stroke-linejoin="round"/>
<path d="M512 319.5V529.5" stroke="black" stroke-width="20" stroke-miterlimit="10" stroke-linecap="round" stroke-linejoin="round"/>
<path d="M512 634.5V704.5" stroke="black" stroke-width="20" stroke-miterlimit="10" stroke-linecap="round" stroke-linejoin="round"/>
<path d="M687 529.5C715.995 529.5 739.5 505.995 739.5 477C739.5 448.005 715.995 424.5 687 424.5C658.005 424.5 634.5 448.005 634.5 477C634.5 505.995 658.005 529.5 687 529.5Z" stroke="black" stroke-width="20" stroke-miterlimit="10" stroke-linecap="round" stroke-linejoin="round"/>
<path d="M687 529.5V704.5" stroke="black" stroke-width="20" stroke-miterlimit="10" stroke-linecap="round" stroke-linejoin="round"/>
<path d="M687 319.5V424.5" stroke="black" stroke-width="20" stroke-miterlimit="10" stroke-linecap="round" stroke-linejoin="round"/>
<path d="M239 774.853H255.385L272.69 816.883H273.426L290.732 774.853H307.117V837.407H294.23V796.692H293.708L277.446 837.103H268.671L252.409 796.542H251.887V837.407H239V774.853ZM328.894 837.407H314.657L336.35 774.853H353.471L375.134 837.407H360.897L345.156 789.148H344.665L328.894 837.407ZM328.004 812.819H361.633V823.144H328.004V812.819ZM421.511 774.853H434.797V815.478C434.797 820.037 433.703 824.029 431.514 827.452C429.346 830.871 426.308 833.537 422.401 835.454C418.494 837.346 413.943 838.293 408.747 838.293C403.531 838.293 398.969 837.346 395.062 835.454C391.155 833.537 388.118 830.871 385.949 827.452C383.781 824.029 382.697 820.037 382.697 815.478V774.853H395.983V814.346C395.983 816.729 396.504 818.847 397.548 820.7C398.611 822.553 400.104 824.008 402.027 825.069C403.95 826.126 406.19 826.656 408.747 826.656C411.324 826.656 413.564 826.126 415.467 825.069C417.39 824.008 418.872 822.553 419.916 820.7C420.979 818.847 421.511 816.729 421.511 814.346V774.853ZM459.014 774.853V837.407H445.728V774.853H459.014ZM531.61 795.076C531.18 793.589 530.577 792.274 529.8 791.134C529.023 789.973 528.071 788.994 526.946 788.202C525.842 787.389 524.573 786.765 523.142 786.339C521.73 785.912 520.165 785.697 518.447 785.697C515.235 785.697 512.412 786.493 509.978 788.081C507.565 789.668 505.683 791.98 504.333 795.012C502.983 798.025 502.308 801.713 502.308 806.071C502.308 810.429 502.972 814.134 504.302 817.188C505.632 820.241 507.514 822.574 509.948 824.183C512.382 825.771 515.256 826.563 518.57 826.563C521.577 826.563 524.144 826.036 526.271 824.975C528.419 823.897 530.055 822.381 531.18 820.424C532.326 818.471 532.899 816.159 532.899 813.493L535.599 813.891H519.398V803.931H545.694V811.812C545.694 817.31 544.528 822.033 542.196 825.982C539.864 829.914 536.652 832.949 532.561 835.085C528.47 837.203 523.786 838.264 518.508 838.264C512.617 838.264 507.442 836.97 502.983 834.383C498.523 831.777 495.046 828.082 492.55 823.295C490.075 818.492 488.838 812.791 488.838 806.193C488.838 801.122 489.574 796.603 491.047 792.632C492.54 788.64 494.627 785.26 497.306 782.49C499.986 779.72 503.105 777.612 506.665 776.168C510.224 774.724 514.08 774 518.232 774C521.792 774 525.105 774.52 528.174 775.555C531.242 776.577 533.962 778.021 536.335 779.895C538.729 781.766 540.682 783.999 542.196 786.583C543.709 789.148 544.681 791.98 545.111 795.076H531.61ZM568.867 838.293C565.86 838.293 563.18 837.773 560.828 836.734C558.476 835.676 556.614 834.117 555.244 832.064C553.894 829.985 553.219 827.398 553.219 824.305C553.219 821.696 553.699 819.51 554.661 817.736C555.622 815.966 556.931 814.539 558.588 813.461C560.245 812.382 562.127 811.568 564.234 811.017C566.361 810.468 568.591 810.081 570.923 809.855C573.664 809.572 575.873 809.307 577.551 809.063C579.228 808.798 580.445 808.411 581.202 807.902C581.959 807.393 582.337 806.641 582.337 805.641V805.458C582.337 803.523 581.723 802.029 580.496 800.968C579.289 799.911 577.571 799.38 575.341 799.38C572.989 799.38 571.117 799.9 569.726 800.939C568.335 801.957 567.415 803.24 566.965 804.788L554.876 803.81C555.489 800.961 556.696 798.495 558.496 796.416C560.296 794.32 562.618 792.711 565.461 791.593C568.325 790.453 571.639 789.883 575.403 789.883C578.021 789.883 580.527 790.188 582.92 790.797C585.334 791.41 587.471 792.356 589.333 793.639C591.215 794.922 592.698 796.57 593.781 798.588C594.865 800.581 595.408 802.975 595.408 805.763V837.407H583.012V830.903H582.644C581.887 832.369 580.875 833.662 579.606 834.78C578.338 835.881 576.814 836.744 575.034 837.375C573.255 837.988 571.199 838.293 568.867 838.293ZM572.61 829.312C574.533 829.312 576.231 828.935 577.704 828.183C579.177 827.409 580.332 826.369 581.171 825.069C582.01 823.764 582.429 822.287 582.429 820.639V815.661C582.02 815.926 581.457 816.17 580.742 816.392C580.046 816.596 579.258 816.79 578.379 816.973C577.499 817.138 576.62 817.288 575.74 817.431C574.86 817.553 574.063 817.664 573.347 817.768C571.813 817.991 570.473 818.349 569.327 818.836C568.182 819.327 567.292 819.987 566.658 820.822C566.024 821.635 565.707 822.657 565.707 823.875C565.707 825.649 566.351 827.004 567.64 827.939C568.949 828.857 570.606 829.312 572.61 829.312ZM618.619 774.853V837.407H605.55V774.853H618.619ZM642.16 774.853V837.407H629.091V774.853H642.16ZM674.111 838.325C669.262 838.325 665.089 837.346 661.59 835.393C658.116 833.415 655.434 830.627 653.551 827.022C651.672 823.398 650.728 819.112 650.728 814.163C650.728 809.339 651.672 805.103 653.551 801.459C655.434 797.814 658.084 794.972 661.5 792.937C664.935 790.901 668.967 789.883 673.589 789.883C676.696 789.883 679.591 790.381 682.273 791.378C684.973 792.356 687.324 793.832 689.329 795.807C691.353 797.782 692.929 800.265 694.053 803.261C695.18 806.232 695.741 809.716 695.741 813.704V817.281H655.945V809.218H683.439C683.439 807.343 683.029 805.684 682.212 804.236C681.391 802.792 680.257 801.663 678.806 800.846C677.373 800.011 675.706 799.595 673.802 799.595C671.818 799.595 670.061 800.054 668.528 800.968C667.012 801.864 665.827 803.075 664.967 804.605C664.107 806.11 663.667 807.791 663.646 809.644V817.31C663.646 819.632 664.078 821.635 664.935 823.327C665.817 825.018 667.052 826.319 668.65 827.237C670.245 828.154 672.135 828.609 674.324 828.609C675.778 828.609 677.107 828.409 678.313 828C679.522 827.591 680.552 826.982 681.413 826.169C682.273 825.352 682.928 824.355 683.378 823.173L695.468 823.968C694.852 826.86 693.596 829.383 691.691 831.544C689.812 833.68 687.374 835.35 684.39 836.551C681.423 837.733 677.996 838.325 674.111 838.325ZM704.274 837.407V790.492H716.943V798.678H717.436C718.293 795.768 719.736 793.567 721.763 792.08C723.786 790.575 726.119 789.822 728.758 789.822C729.413 789.822 730.119 789.862 730.875 789.944C731.631 790.023 732.297 790.138 732.87 790.277V801.824C732.254 801.641 731.404 801.477 730.321 801.337C729.237 801.194 728.247 801.122 727.347 801.122C725.425 801.122 723.704 801.538 722.192 802.373C720.698 803.19 719.513 804.329 718.631 805.795C717.774 807.261 717.342 808.952 717.342 810.866V837.407H704.274ZM749.132 855C747.476 855 745.92 854.867 744.466 854.602C743.037 854.359 741.848 854.043 740.909 853.656L743.854 843.944C745.387 844.414 746.77 844.668 747.994 844.707C749.243 844.747 750.316 844.464 751.216 843.851C752.138 843.242 752.883 842.202 753.455 840.737L754.226 838.751L737.319 790.492H751.065L760.821 824.947H761.311L771.161 790.492H785L766.682 842.478C765.8 845.001 764.605 847.202 763.093 849.076C761.599 850.968 759.705 852.423 757.416 853.441C755.126 854.48 752.365 855 749.132 855Z" fill="black"/>
</svg>
